C:\Users\Nicos\Documents\OpenSimProjects\SprintingProject\Study1\PredictiveResults\IC_pred_Sprinting_optimum_28-October-2023__09-53-48_p02_maxVel_01___HTD_Minus_6_GRF.mot
version=1
nRows=4
nColumns=127
inDegrees=yes
endheader
time	ground_force_vx	ground_force_vy	ground_force_vz	ground_force_px	ground_force_py	ground_force_pz	ground_torque_x	ground_torque_y	ground_torque_z	1_ground_force_vx	1_ground_force_vy	1_ground_force_vz	1_ground_force_px	1_ground_force_py	1_ground_force_pz	1_ground_torque_x	1_ground_torque_y	1_ground_torque_z	2_ground_force_vx	2_ground_force_vy	2_ground_force_vz	2_ground_force_px	2_ground_force_py	2_ground_force_pz	2_ground_torque_x	2_ground_torque_y	2_ground_torque_z	3_ground_force_vx	3_ground_force_vy	3_ground_force_vz	3_ground_force_px	3_ground_force_py	3_ground_force_pz	3_ground_torque_x	3_ground_torque_y	3_ground_torque_z	4_ground_force_vx	4_ground_force_vy	4_ground_force_vz	4_ground_force_px	4_ground_force_py	4_ground_force_pz	4_ground_torque_x	4_ground_torque_y	4_ground_torque_z	5_ground_force_vx	5_ground_force_vy	5_ground_force_vz	5_ground_force_px	5_ground_force_py	5_ground_force_pz	5_ground_torque_x	5_ground_torque_y	5_ground_torque_z	6_ground_force_vx	6_ground_force_vy	6_ground_force_vz	6_ground_force_px	6_ground_force_py	6_ground_force_pz	6_ground_torque_x	6_ground_torque_y	6_ground_torque_z	7_ground_force_vx	7_ground_force_vy	7_ground_force_vz	7_ground_force_px	7_ground_force_py	7_ground_force_pz	7_ground_torque_x	7_ground_torque_y	7_ground_torque_z	8_ground_force_vx	8_ground_force_vy	8_ground_force_vz	8_ground_force_px	8_ground_force_py	8_ground_force_pz	8_ground_torque_x	8_ground_torque_y	8_ground_torque_z	9_ground_force_vx	9_ground_force_vy	9_ground_force_vz	9_ground_force_px	9_ground_force_py	9_ground_force_pz	9_ground_torque_x	9_ground_torque_y	9_ground_torque_z	10_ground_force_vx	10_ground_force_vy	10_ground_force_vz	10_ground_force_px	10_ground_force_py	10_ground_force_pz	10_ground_torque_x	10_ground_torque_y	10_ground_torque_z	11_ground_force_vx	11_ground_force_vy	11_ground_force_vz	11_ground_force_px	11_ground_force_py	11_ground_force_pz	11_ground_torque_x	11_ground_torque_y	11_ground_torque_z	12_ground_force_vx	12_ground_force_vy	12_ground_force_vz	12_ground_force_px	12_ground_force_py	12_ground_force_pz	12_ground_torque_x	12_ground_torque_y	12_ground_torque_z	13_ground_force_vx	13_ground_force_vy	13_ground_force_vz	13_ground_force_px	13_ground_force_py	13_ground_force_pz	13_ground_torque_x	13_ground_torque_y	13_ground_torque_z
0.204080	-0.000000	0.000000	-0.000000	0.981775	0.178881	0.424039	0.000000	0.000000	0.000000	-0.000000	0.000000	-0.000000	1.000939	0.198735	0.446915	0.000000	0.000000	0.000000	-0.000000	0.000000	-0.000000	1.014891	0.209125	0.445300	0.000000	0.000000	0.000000	-0.000000	0.000000	-0.000000	1.010764	0.208311	0.423011	0.000000	0.000000	0.000000	-0.000000	0.000000	-0.000000	1.045111	0.248883	0.479779	0.000000	0.000000	0.000000	-0.000000	0.000000	-0.000000	1.023159	0.223430	0.441679	0.000000	0.000000	0.000000	-0.000000	0.000000	-0.000000	1.056232	0.280649	0.427197	0.000000	0.000000	0.000000	-0.000000	0.000000	0.000000	2.194102	0.089446	0.198884	0.000000	0.000000	0.000000	-0.000000	0.000000	0.000000	2.153623	0.090922	0.170249	0.000000	0.000000	0.000000	-0.000000	0.000000	0.000000	2.120496	0.087305	0.173270	0.000000	0.000000	0.000000	-0.000000	0.000000	0.000000	2.121070	0.083303	0.194532	0.000000	0.000000	0.000000	-0.000000	0.000000	0.000000	2.039710	0.091514	0.130520	0.000000	0.000000	0.000000	-0.000000	0.000000	0.000000	2.090627	0.085912	0.173027	0.000000	0.000000	0.000000	-0.000000	0.000000	0.000000	1.971150	0.080337	0.172053	0.000000	0.000000	0.000000
0.205477	-0.000000	0.000000	-0.000000	1.001202	0.180473	0.425481	0.000000	0.000000	0.000000	-0.000000	0.000000	-0.000000	1.020442	0.200345	0.448229	0.000000	0.000000	0.000000	-0.000000	0.000000	-0.000000	1.034363	0.210741	0.446527	0.000000	0.000000	0.000000	-0.000000	0.000000	-0.000000	1.030121	0.209917	0.424261	0.000000	0.000000	0.000000	-0.000000	0.000000	-0.000000	1.064677	0.250527	0.480793	0.000000	0.000000	0.000000	-0.000000	0.000000	-0.000000	1.042581	0.225049	0.442844	0.000000	0.000000	0.000000	-0.000000	0.000000	-0.000000	1.075451	0.282282	0.428111	0.000000	0.000000	0.000000	-0.000000	0.000000	0.000000	2.206958	0.087848	0.198098	0.000000	0.000000	0.000000	-0.000000	0.000000	0.000000	2.166467	0.089417	0.169499	0.000000	0.000000	0.000000	-0.000000	0.000000	0.000000	2.133291	0.085749	0.172504	0.000000	0.000000	0.000000	-0.000000	0.000000	0.000000	2.133879	0.081671	0.193708	0.000000	0.000000	0.000000	-0.000000	0.000000	0.000000	2.052471	0.090133	0.129890	0.000000	0.000000	0.000000	-0.000000	0.000000	0.000000	2.103420	0.084365	0.172269	0.000000	0.000000	0.000000	-0.000000	0.000000	0.000000	1.983935	0.078830	0.171326	0.000000	0.000000	0.000000
0.206087	-0.000000	0.000000	-0.000000	1.009742	0.181147	0.426124	0.000000	0.000000	0.000000	-0.000000	0.000000	-0.000000	1.029012	0.201028	0.448813	0.000000	0.000000	0.000000	-0.000000	0.000000	-0.000000	1.042916	0.211429	0.447071	0.000000	0.000000	0.000000	-0.000000	0.000000	-0.000000	1.038622	0.210601	0.424816	0.000000	0.000000	0.000000	-0.000000	0.000000	-0.000000	1.073264	0.251230	0.481239	0.000000	0.000000	0.000000	-0.000000	0.000000	-0.000000	1.051108	0.225739	0.443359	0.000000	0.000000	0.000000	-0.000000	0.000000	-0.000000	1.083876	0.282980	0.428510	0.000000	0.000000	0.000000	-0.000000	0.000000	0.000000	2.212472	0.087145	0.197745	0.000000	0.000000	0.000000	-0.000000	0.000000	0.000000	2.171974	0.088753	0.169164	0.000000	0.000000	0.000000	-0.000000	0.000000	0.000000	2.138771	0.085056	0.172167	0.000000	0.000000	0.000000	-0.000000	0.000000	0.000000	2.139368	0.080946	0.193346	0.000000	0.000000	0.000000	-0.000000	0.000000	0.000000	2.057931	0.089519	0.129623	0.000000	0.000000	0.000000	-0.000000	0.000000	0.000000	2.108899	0.083677	0.171939	0.000000	0.000000	0.000000	-0.000000	0.000000	0.000000	1.989411	0.078162	0.171025	0.000000	0.000000	0.000000
0.208014	-0.000000	0.000000	-0.000000	1.036951	0.183194	0.428204	0.000000	0.000000	0.000000	-0.000000	0.000000	-0.000000	1.056298	0.203112	0.450698	0.000000	0.000000	0.000000	-0.000000	0.000000	-0.000000	1.070136	0.213533	0.448818	0.000000	0.000000	0.000000	-0.000000	0.000000	-0.000000	1.065674	0.212686	0.426598	0.000000	0.000000	0.000000	-0.000000	0.000000	-0.000000	1.100559	0.253389	0.482657	0.000000	0.000000	0.000000	-0.000000	0.000000	-0.000000	1.078232	0.227850	0.445009	0.000000	0.000000	0.000000	-0.000000	0.000000	-0.000000	1.110616	0.285119	0.429773	0.000000	0.000000	0.000000	-0.000000	0.000000	0.000000	2.229479	0.084830	0.196642	0.000000	0.000000	0.000000	-0.000000	0.000000	0.000000	2.188961	0.086567	0.168121	0.000000	0.000000	0.000000	-0.000000	0.000000	0.000000	2.155645	0.082774	0.171126	0.000000	0.000000	0.000000	-0.000000	0.000000	0.000000	2.156267	0.078562	0.192224	0.000000	0.000000	0.000000	-0.000000	0.000000	0.000000	2.074740	0.087514	0.128826	0.000000	0.000000	0.000000	-0.000000	0.000000	0.000000	2.125767	0.081424	0.170929	0.000000	0.000000	0.000000	-0.000000	0.000000	0.000000	2.006257	0.076024	0.170143	0.000000	0.000000	0.000000
